<?xml version="1.0" encoding="UTF-8" standalone="no"?>
<!-- Created with Inkscape (http://www.inkscape.org/) -->

<svg
   width="64.007187mm"
   height="24.814701mm"
   viewBox="0 0 64.007187 24.814701"
   version="1.1"
   id="svg2443"
   xmlns="http://www.w3.org/2000/svg"
   xmlns:svg="http://www.w3.org/2000/svg">
  <defs
     id="defs2440" />
  <g
     id="layer1"
     transform="translate(-2.3756876,-2.6847326)">
    <g
       id="g2607"
       transform="matrix(3.5687865,0,0,3.5687865,-269.93749,-493.1231)">
      <path
         d="m 76.304138,139.02422 h 1.29822 v 1.29823 h -1.29822 v -1.29823"
         style="fill:#3064b8;fill-opacity:1;fill-rule:nonzero;stroke:none;stroke-width:0.0352778"
         id="path330" />
      <path
         d="m 87.261418,143.01061 c 0,-0.34219 0.39158,-0.93839 1.24177,-0.94191 0.84667,0 1.24178,0.59972 1.24178,0.94191 z m 3.66536,0.43039 c 0,-0.33514 -0.06,-0.65264 -0.17992,-0.94544 -0.11642,-0.29281 -0.28222,-0.55386 -0.49389,-0.77259 -0.21167,-0.22225 -0.46919,-0.39511 -0.762,-0.51858 -0.29633,-0.12347 -0.62442,-0.18697 -0.98072,-0.18697 -0.33514,0 -0.65264,0.0635 -0.94897,0.1905 -0.29634,0.127 -0.55386,0.30339 -0.77259,0.51858 -0.21872,0.21872 -0.39158,0.47978 -0.51858,0.77259 -0.127,0.29633 -0.19403,0.61736 -0.19403,0.9525 0,0.33513 0.0635,0.65263 0.18345,0.94897 0.11994,0.29633 0.2928,0.55386 0.50447,0.77258 0.21519,0.21872 0.47978,0.39159 0.78317,0.51859 0.30338,0.127 0.64205,0.1905 1.00188,0.1905 1.04423,0 1.69334,-0.47273 2.08139,-0.91723 l -0.88547,-0.6738 c -0.18697,0.22225 -0.63147,0.52211 -1.18533,0.52211 -0.34925,0 -0.635,-0.0811 -0.8502,-0.23989 -0.21872,-0.15875 -0.36689,-0.37747 -0.4445,-0.64911 l -0.0141,-0.0423 h 3.67595 z m -8.50195,-1.86972 c -0.34219,-0.36689 -0.82197,-0.55386 -1.43228,-0.55386 -0.29633,0 -0.56797,0.06 -0.80786,0.17992 -0.24341,0.11994 -0.45155,0.28575 -0.61383,0.49741 l -0.067,0.0882 v -0.0776 -0.59267 h -1.21708 v 4.67783 h 1.22767 v -2.49414 0.17286 c 0,-0.0282 0,-0.0564 0,-0.0847 0.0141,-0.43745 0.12347,-0.762 0.32455,-0.97014 0.21872,-0.21872 0.47978,-0.33161 0.78317,-0.33161 0.3563,0 0.62794,0.10936 0.80786,0.32455 0.17639,0.21167 0.26458,0.51153 0.26811,0.89606 v 0 0.0106 c 0,0 0,0 0,0 v 0 2.4765 h 1.24178 v -2.65641 c 0,-0.66675 -0.17286,-1.19239 -0.51506,-1.56281 z m 10.3752,4.21922 v -6.86153 h -1.2312 v 6.86153 z m -7.06261,0.0459 v -1.14652 c -0.17992,0 -0.33162,-0.0106 -0.4445,-0.0282 -0.127,-0.0212 -0.22578,-0.0635 -0.28928,-0.13052 -0.067,-0.0635 -0.10936,-0.15875 -0.13053,-0.2787 -0.0176,-0.11289 -0.0282,-0.26811 -0.0282,-0.45155 v -1.63689 h 0.89253 v -1.05128 h -0.89253 v -1.82386 h -1.2312 v 4.52261 c 0,0.381 0.0318,0.70555 0.0988,0.96308 0.0635,0.25753 0.17286,0.46567 0.32808,0.62089 0.1517,0.15522 0.35631,0.27164 0.60325,0.33867 0.24695,0.067 0.56445,0.1023 0.93839,0.1023 z m -8.16681,-0.0459 v -4.67783 h -1.23472 v 4.67783 h 1.23472"
         style="fill:#5dcbf5;fill-opacity:1;fill-rule:nonzero;stroke:none;stroke-width:0.0352778"
         id="path332" />
      <path
         d="m 93.819558,145.33895 c -0.0176,0 -0.0317,0 -0.0459,0 h -0.0705 v -0.14464 h 0.0705 c 0.0141,0 0.0282,0 0.0459,0 0.0141,0.004 0.0282,0.004 0.0388,0.0106 0.0106,0.004 0.0212,0.0106 0.0282,0.0212 0.007,0.0106 0.0106,0.0247 0.0106,0.0423 0,0.0141 -0.004,0.0282 -0.0106,0.0388 -0.007,0.0106 -0.0176,0.0176 -0.0282,0.0212 -0.0106,0.007 -0.0247,0.0106 -0.0388,0.0106 z m 0.0494,0.0741 c 0.0353,-0.004 0.067,-0.0176 0.0882,-0.0388 0.0247,-0.0247 0.0353,-0.0564 0.0353,-0.10231 0,-0.0529 -0.0141,-0.0917 -0.0423,-0.11642 -0.0317,-0.0282 -0.0776,-0.0423 -0.14111,-0.0423 h -0.20108 v 0.52211 h 0.0952 v -0.21519 h 0.0705 l 0.13053,0.21519 h 0.10231 z m 0.26106,0.10936 c -0.0212,0.0459 -0.0459,0.0847 -0.0811,0.11995 -0.0317,0.0353 -0.0741,0.06 -0.11994,0.0811 -0.0459,0.0212 -0.0917,0.0282 -0.14464,0.0282 -0.0529,0 -0.0988,-0.007 -0.14464,-0.0282 -0.0459,-0.0212 -0.0882,-0.0459 -0.11995,-0.0811 -0.0353,-0.0353 -0.0635,-0.0741 -0.0811,-0.11995 -0.0212,-0.0459 -0.0282,-0.0953 -0.0282,-0.14464 0,-0.0529 0.007,-0.1023 0.0282,-0.14464 0.0176,-0.0459 0.0459,-0.0882 0.0811,-0.11994 0.0317,-0.0353 0.0741,-0.0635 0.11995,-0.0811 0.0459,-0.0212 0.0917,-0.0317 0.14464,-0.0317 0.0529,0 0.0988,0.0106 0.14464,0.0317 0.0459,0.0176 0.0882,0.0459 0.11994,0.0811 0.0353,0.0317 0.06,0.0741 0.0811,0.11994 0.0212,0.0423 0.0282,0.0917 0.0282,0.14464 0,0.0494 -0.007,0.0988 -0.0282,0.14464 z m 0.0741,-0.32103 c -0.0247,-0.0564 -0.0564,-0.10583 -0.0988,-0.14463 -0.0388,-0.0423 -0.0882,-0.0741 -0.14464,-0.0988 -0.0529,-0.0247 -0.11289,-0.0353 -0.17639,-0.0353 -0.0635,0 -0.12347,0.0106 -0.17639,0.0353 -0.0565,0.0247 -0.10583,0.0564 -0.14464,0.0988 -0.0423,0.0388 -0.0741,0.0882 -0.0988,0.14463 -0.0247,0.0529 -0.0353,0.11289 -0.0353,0.17639 0,0.0635 0.0106,0.11995 0.0353,0.17639 0.0247,0.0565 0.0565,0.10231 0.0988,0.14464 0.0388,0.0423 0.0882,0.0741 0.14464,0.0988 0.0529,0.0247 0.11289,0.0353 0.17639,0.0353 0.0635,0 0.12347,-0.0106 0.17639,-0.0353 0.0564,-0.0247 0.10583,-0.0565 0.14464,-0.0988 0.0423,-0.0423 0.0741,-0.0882 0.0988,-0.14464 0.0247,-0.0564 0.0353,-0.11289 0.0353,-0.17639 0,-0.0635 -0.0106,-0.12347 -0.0353,-0.17639"
         style="fill:#5dcbf5;fill-opacity:1;fill-rule:nonzero;stroke:none;stroke-width:0.0352778"
         id="path334" />
    </g>
  </g>
</svg>
